<svg width="132" height="154" viewBox="0 0 132 154" fill="none" xmlns="http://www.w3.org/2000/svg">
<path d="M34.2884 96.4721C36.7505 96.4721 38.7464 94.4762 38.7464 92.0141C38.7464 89.552 36.7505 87.556 34.2884 87.556C31.8263 87.556 29.8303 89.552 29.8303 92.0141C29.8303 94.4762 31.8263 96.4721 34.2884 96.4721Z" fill="black"/>
<path d="M51.2319 84.9157C48.9369 84.9157 47.0684 86.7893 47.0684 89.0945C47.0684 91.4048 48.9369 93.2682 51.2319 93.2682C53.5473 93.2682 55.4208 91.4048 55.4208 89.0945C55.4208 86.7893 53.5473 84.9157 51.2319 84.9157Z" fill="black"/>
<path d="M45.1643 102.428C47.2647 102.428 48.9674 100.725 48.9674 98.625C48.9674 96.5246 47.2647 94.8219 45.1643 94.8219C43.064 94.8219 41.3613 96.5246 41.3613 98.625C41.3613 100.725 43.064 102.428 45.1643 102.428Z" fill="black"/>
<path d="M65.4845 98.63C67.31 98.63 68.7899 97.1501 68.7899 95.3246C68.7899 93.499 67.31 92.0191 65.4845 92.0191C63.6589 92.0191 62.179 93.499 62.179 95.3246C62.179 97.1501 63.6589 98.63 65.4845 98.63Z" fill="black"/>
<path d="M23.7271 103.484C25.3199 103.484 26.6111 102.193 26.6111 100.6C26.6111 99.0073 25.3199 97.7161 23.7271 97.7161C22.1343 97.7161 20.8431 99.0073 20.8431 100.6C20.8431 102.193 22.1343 103.484 23.7271 103.484Z" fill="black"/>
<path d="M130.329 42.3206C129.38 41.2391 128.004 40.6196 126.562 40.6196H92.9131V5.02637C92.9131 3.36095 92.0906 1.80724 90.7146 0.872979C89.3386 -0.0612811 87.597 -0.259304 86.0382 0.344919L49.4041 14.7142C46.8145 15.7297 45.535 18.6493 46.5556 21.2388C47.566 23.8284 50.4906 25.1028 53.0751 24.0873L82.8343 12.4141V40.6196H49.1908C47.7742 40.6196 46.4236 41.2137 45.469 42.2597C44.5144 43.3056 44.0473 44.707 44.1844 46.1236L46.7485 73.2172C46.6825 73.2172 46.6165 73.207 46.5505 73.207C25.6261 73.207 8.15954 89.5667 6.79877 110.456C6.74292 111.248 6.8597 112.035 7.05264 112.796C2.97541 114.081 0 117.853 0 122.352C0 127.079 3.26483 131.009 7.64671 132.091C7.2659 133.274 7.14404 134.528 7.3776 135.792C8.28648 140.651 10.089 145.257 12.7394 149.507C14.1205 151.725 16.5425 153.056 19.1472 153.056H73.9436C76.1015 153.056 78.0868 152.101 79.5085 150.537H114.152C116.696 150.537 118.839 148.648 119.133 146.125L131.538 46.2658C131.731 44.839 131.284 43.4021 130.329 42.3206ZM46.5556 80.7522C63.6769 80.7522 77.6553 94.0959 78.7621 110.943H14.3389C15.4407 94.0959 29.4139 80.7522 46.5556 80.7522ZM73.9538 145.506H19.1472C17.0604 142.159 15.5575 138.417 14.806 134.396H78.295C77.5435 138.422 76.0355 142.165 73.9538 145.506ZM77.6705 124.876H51.6483H15.4254C14.0342 124.876 12.907 123.748 12.907 122.357C12.907 120.971 14.0342 119.839 15.4254 119.839H51.171H77.6705C79.0617 119.839 80.1889 120.971 80.1889 122.357C80.1889 123.748 79.0668 124.876 77.6705 124.876Z" fill="black"/>
</svg>
