<svg width="175" height="175" viewBox="0 0 175 175" fill="none" xmlns="http://www.w3.org/2000/svg">
<path d="M42.6938 110.601C39.7588 110.601 37.3782 112.496 37.3782 114.835V114.961C37.3782 117.297 39.7575 119.191 42.6938 119.191H90.5485C93.4849 119.191 95.8655 117.297 95.8655 114.961V114.835C95.8655 112.496 93.4849 110.601 90.5485 110.601H42.6938Z" fill="black"/>
<path d="M47.6872 87.5831C47.6872 88.4273 48.3701 89.1119 49.2143 89.1119C50.0603 89.1119 50.7435 88.4273 50.7435 87.5831C50.7435 86.7388 50.0606 86.0539 49.2143 86.0539C48.3704 86.0539 47.6872 86.7385 47.6872 87.5831Z" fill="black"/>
<path d="M59.1459 87.5831C59.1459 88.4273 59.8288 89.1119 60.6734 89.1119C61.5159 89.1119 62.2005 88.4273 62.2005 87.5831C62.2005 86.7388 61.5159 86.0539 60.6734 86.0539C59.8288 86.0539 59.1459 86.7385 59.1459 87.5831Z" fill="black"/>
<path d="M53.7995 82.9996C53.7995 83.8434 54.4811 84.525 55.3253 84.525C56.1695 84.525 56.8541 83.8434 56.8541 82.9996C56.8541 82.1553 56.1695 81.4676 55.3253 81.4676C54.4811 81.4676 53.7995 82.1553 53.7995 82.9996Z" fill="black"/>
<path d="M65.2473 82.628C65.7511 82.628 66.1914 82.3761 66.5044 81.9984C66.6627 81.7469 66.7888 81.4338 66.7888 81.0869C66.7888 80.2392 66.0967 79.5457 65.2473 79.5457C64.9021 79.5457 64.5876 79.6718 64.3357 79.8284C63.9598 80.1445 63.7386 80.5834 63.7386 81.0869C63.7386 81.9373 64.3986 82.628 65.2473 82.628Z" fill="black"/>
<path d="M71.0004 89.4804C71.7866 89.4804 72.4787 88.8508 72.5095 88.0342V87.9727C72.5095 87.1223 71.8191 86.4319 71.0004 86.4319H70.9068C70.0889 86.4931 69.461 87.1531 69.461 87.9727C69.461 88.82 70.1518 89.4804 71.0004 89.4804Z" fill="black"/>
<path d="M81.469 100.986C80.8086 100.986 80.1794 101.082 79.6147 101.269C79.0788 101.425 78.6399 101.677 78.2626 101.929C77.5701 102.402 77.0359 102.936 76.6278 103.406C76.313 103.783 76.0303 104.099 75.7788 104.382C75.4014 104.821 75.0866 105.137 74.8043 105.294L74.3637 105.481L73.7358 105.576L73.0762 105.45L72.6353 105.228C72.3837 105.072 72.0692 104.789 71.7562 104.412C71.5042 104.129 71.2202 103.816 70.9071 103.439C70.4344 102.904 69.8698 102.306 69.0515 101.802C68.6431 101.551 68.1721 101.333 67.6686 101.207C67.134 101.047 66.6002 100.986 66.003 100.986C65.343 100.986 64.7134 101.081 64.1471 101.268C63.6128 101.425 63.1743 101.677 62.7642 101.928C62.1042 102.401 61.5699 102.935 61.1615 103.405C60.8467 103.782 60.5647 104.099 60.3128 104.381C59.9351 104.82 59.6207 105.136 59.3383 105.293L58.8974 105.48L58.2695 105.575C57.9858 105.575 57.7664 105.514 57.6099 105.449L57.1693 105.228C56.9174 105.071 56.6026 104.789 56.2881 104.411C56.0383 104.129 55.7542 103.816 55.4395 103.438C54.9681 102.904 54.4031 102.305 53.5855 101.802C53.1771 101.55 52.7058 101.332 52.2023 101.206C51.6684 101.047 51.1342 100.985 50.5371 100.985C49.8767 100.985 49.2475 101.08 48.6503 101.268C48.1469 101.424 47.7063 101.676 47.2982 101.927C46.6378 102.4 46.104 102.935 45.6955 103.404C45.3807 103.781 45.0984 104.098 44.8465 104.38C44.4691 104.82 44.1543 105.136 43.8717 105.292L43.4314 105.479L42.8036 105.574C42.5199 105.543 42.2998 105.513 42.1418 105.448L41.703 105.227C41.4511 105.07 41.1363 104.788 40.8218 104.411C40.5699 104.128 40.2876 103.815 39.9731 103.437C39.5018 102.903 38.9355 102.305 38.1189 101.801C37.7105 101.549 37.2391 101.331 36.7356 101.206C36.2325 101.046 35.6675 100.984 35.1008 100.984C34.0327 100.984 33.1837 101.832 33.1837 102.869C33.1837 103.941 34.0327 104.788 35.1008 104.788L35.7612 104.883L36.2014 105.101C36.4533 105.292 36.7664 105.543 37.0812 105.921C37.3331 106.203 37.6151 106.547 37.9299 106.894C38.4012 107.459 38.9676 108.057 39.7841 108.561C40.1939 108.813 40.6653 109 41.1688 109.157C41.6705 109.316 42.2372 109.378 42.8036 109.378C43.4943 109.378 44.1236 109.283 44.6886 109.095C45.192 108.905 45.6634 108.687 46.0411 108.435C46.7332 107.963 47.2674 107.428 47.6755 106.958C47.9903 106.581 48.2727 106.234 48.5242 105.952C48.9019 105.543 49.215 105.227 49.499 105.07L49.9379 104.883L50.5671 104.788L51.2272 104.883L51.6677 105.101C51.9196 105.292 52.2341 105.543 52.5472 105.921C52.7991 106.203 53.0814 106.547 53.3962 106.894C53.8672 107.459 54.4339 108.057 55.2521 108.561C55.6603 108.813 56.1313 109 56.6351 109.157C57.1372 109.316 57.7032 109.378 58.2695 109.378C58.9603 109.378 59.5896 109.283 60.1545 109.095C60.6583 108.905 61.1293 108.687 61.507 108.435C62.1992 107.963 62.7334 107.428 63.1418 106.958C63.4563 106.581 63.739 106.234 63.9905 105.952C64.3686 105.543 64.683 105.227 64.9653 105.07L65.4059 104.883L66.003 104.788C66.3178 104.788 66.5373 104.849 66.6938 104.883L67.134 105.101C67.3859 105.292 67.7007 105.543 68.0138 105.921C68.2657 106.203 68.5494 106.547 68.8625 106.894C69.3352 107.459 69.9002 108.057 70.7185 108.561C71.1266 108.813 71.5979 109 72.1014 109.157C72.6356 109.316 73.1698 109.378 73.7362 109.378C74.4273 109.378 75.0565 109.283 75.6226 109.095C76.1571 108.905 76.5974 108.687 76.9733 108.435C77.6655 107.963 78.2001 107.428 78.6078 106.958C78.9226 106.581 79.2053 106.234 79.4568 105.952C79.8342 105.543 80.149 105.227 80.4313 105.07L80.8719 104.883L81.469 104.788C81.7838 104.788 82.0029 104.849 82.1598 104.883L82.6003 105.101C82.8844 105.292 83.1664 105.543 83.4812 105.921C83.7313 106.203 84.0157 106.547 84.3302 106.894C84.8012 107.459 85.3658 108.057 86.1841 108.561C86.5925 108.813 87.0639 109 87.567 109.157C88.1016 109.316 88.6355 109.378 89.2326 109.378C89.8943 109.378 90.5222 109.283 91.0885 109.095C91.6228 108.905 92.063 108.687 92.4714 108.435L92.6604 108.279L89.8618 105.479H89.8314L89.2326 105.574C88.9195 105.574 88.7308 105.513 88.5418 105.448L88.1016 105.227C87.8497 105.07 87.5366 104.788 87.2218 104.41C86.9702 104.128 86.6879 103.815 86.3731 103.437C85.9018 102.903 85.3354 102.304 84.5171 101.801C84.1087 101.549 83.6374 101.331 83.1342 101.205C82.6325 101.048 82.0661 100.986 81.469 100.986Z" fill="black"/>
<path d="M40.3501 138.836H91.9054C94.1374 138.836 96.182 137.924 97.6586 136.478C99.1047 135.002 100.016 132.957 100.016 130.725V130.16C100.016 129.687 100.016 129.248 99.9534 128.776H113.062L108.347 124.03H98.0988C97.5328 123.431 96.8417 122.897 96.0559 122.584C95.2379 122.206 94.326 122.049 93.3834 122.049H38.9043C37.8038 122.049 36.7353 122.301 35.7913 122.771C35.1005 123.148 34.5037 123.652 34.0324 124.217C33.3095 125.098 32.8686 126.071 32.6173 127.078C32.3654 128.085 32.2393 129.122 32.2393 130.16V130.725C32.2393 132.957 33.1512 135.002 34.6295 136.478C36.0753 137.924 38.1182 138.836 40.3501 138.836ZM37.0176 130.16C37.0176 129.5 37.0805 128.932 37.1759 128.463C37.2692 128.115 37.3628 127.802 37.4582 127.612L37.7098 127.234L38.0875 126.952C38.2748 126.891 38.4959 126.826 38.904 126.826H93.3834C93.8547 126.826 94.1066 126.921 94.2631 126.983L94.6101 127.268C94.7666 127.455 94.9231 127.768 95.0489 128.272C95.175 128.776 95.2697 129.435 95.2697 130.16V130.725C95.2697 131.668 94.8924 132.484 94.2953 133.113C93.666 133.712 92.8495 134.09 91.9054 134.09H40.3501C39.4386 134.09 38.6217 133.712 37.9924 133.113C37.3957 132.484 37.018 131.667 37.018 130.725L37.0176 130.16Z" fill="black"/>
<path d="M33.9999 98.0301C34.5666 98.7239 35.2895 99.2578 36.0753 99.5709C36.8611 99.8871 37.6776 100.013 38.5263 100.013H84.4238L79.678 95.2335H38.5263C38.2115 95.2335 37.9921 95.2027 37.8984 95.1381L37.7727 95.077L37.6773 94.9816L37.5836 94.4477L37.7402 93.5358C38.0875 91.43 39.0606 89.3242 40.5692 87.2795C42.8641 84.2615 46.4177 81.4649 50.8491 79.4849C53.9294 78.0698 57.3877 77.0629 61.129 76.5933L57.0104 72.4425C52.2013 73.5106 47.8003 75.3344 44.1226 77.7226C41.1981 79.6106 38.6839 81.9041 36.7654 84.4184C35.2888 86.4015 34.1882 88.5384 33.5282 90.77H33.3717L33.0569 92.7503L33.0244 92.8765L32.9615 93.0634L32.8986 93.3796L32.8357 93.8492V94.2915C32.8357 95.0469 32.9311 95.7988 33.1827 96.5234C33.372 97.0566 33.6543 97.5912 33.9999 98.0301Z" fill="black"/>
<path d="M87.5 0C39.1723 0.00307617 0.00583572 39.173 0.00139236 87.5C0.00583572 135.827 39.1723 174.997 87.5 175C135.827 174.997 174.994 135.827 174.998 87.5C174.994 39.173 135.827 0.00307617 87.5 0ZM87.5 162.425C66.7899 162.422 48.0987 154.047 34.5201 140.481C20.9522 126.9 12.5788 108.21 12.5761 87.5C12.5788 68.4294 19.692 51.0809 31.4105 37.8499L136.902 143.806C123.701 155.395 106.452 162.422 87.5 162.425ZM143.586 137.154L38.0964 31.1968C51.2959 19.6044 68.546 12.5778 87.5 12.5744C108.209 12.5774 126.901 20.9494 140.48 34.5184C154.048 48.0966 162.421 66.7895 162.424 87.4997C162.421 106.571 155.307 123.919 143.586 137.154Z" fill="black"/>
<path d="M98.8863 30.5125L84.2382 22.0086L81.7944 26.2175L94.5841 33.6465L97.7508 48.2046H79.1742L80.4638 64.8344L85.6505 70.0533L84.3305 52.9812H134.219L129.503 114.095L133.936 118.528L139.344 48.2046H102.732L98.8863 30.5125Z" fill="black"/>
</svg>
