<svg width="288" height="288" viewBox="0 0 288 288" fill="none" xmlns="http://www.w3.org/2000/svg">
<g clip-path="url(#clip0_223_4)">
<path d="M31.5 261C33.9853 261 36 258.985 36 256.5C36 254.015 33.9853 252 31.5 252C29.0147 252 27 254.015 27 256.5C27 258.985 29.0147 261 31.5 261Z" fill="#00DC58"/>
<path d="M63 117C63 107.046 54.9495 99 45 99H18C8.0505 99 0 107.046 0 117V270C0 279.945 8.0505 288 18 288H45C54.9495 288 63 279.945 63 270V117ZM31.5 270C24.0435 270 18 263.952 18 256.5C18 249.039 24.0435 243 31.5 243C38.9565 243 45 249.039 45 256.5C45 263.952 38.9565 270 31.5 270Z" fill="#00DC58"/>
<path d="M288 126C288 111.087 275.908 99 261 99H184.5L193.5 18C194.44 8.154 187.708 0 177.759 0H159.755C148.5 0 143.815 7.875 139.5 18L103.5 99C93.8025 122.26 81 126 72 126V261.981C77.4135 263.263 84.213 266.233 90.945 273.137C104.958 287.523 121.694 288 130.5 288H234C248.908 288 261 275.904 261 261C261 253.21 257.684 246.204 252.405 241.277C262.669 237.461 270 227.596 270 216C270 208.21 266.684 201.204 261.405 196.277C271.669 192.461 279 182.596 279 171C279 163.21 275.684 156.204 270.405 151.277C280.669 147.461 288 137.596 288 126Z" fill="#00DC58"/>
</g>
<defs>
<clipPath id="clip0_223_4">
<rect width="288" height="288" fill="white"/>
</clipPath>
</defs>
</svg>
