<svg width="110" height="117" viewBox="0 0 110 117" fill="none" xmlns="http://www.w3.org/2000/svg">
<path d="M107.707 31.9967C105.671 29.2185 102.522 27.4611 99.0853 27.1873L27.9841 21.5561L26.6915 14.2332C25.5098 7.5467 20.1893 2.36885 13.4732 1.37541L12.1813 1.1826L4.49469 0.042211C2.35332 -0.272206 0.360717 1.20359 0.0431056 3.34496C-0.275191 5.48816 1.20358 7.48099 3.34495 7.79746V7.79564L12.325 9.12678L12.3271 9.13271C15.7012 9.62647 18.3795 12.2326 18.9739 15.5954L31.144 84.5715C32.286 91.0458 37.9085 95.7625 44.483 95.7645H94.4959C96.6612 95.7645 98.4149 94.009 98.4149 91.8464C98.4149 89.682 96.6612 87.9265 94.4959 87.9265H44.4828C41.7144 87.9285 39.3407 85.9357 38.8602 83.2097L37.1578 73.5584H92.9092C98.4284 73.5584 103.217 69.75 104.456 64.3718L109.696 41.6637C110.472 38.3067 109.745 34.7785 107.707 31.9967Z" fill="#D78100"/>
<path d="M47.4731 99.9661C42.818 99.9661 39.0457 103.743 39.0457 108.396C39.0457 113.05 42.818 116.823 47.4731 116.823C52.128 116.823 55.9026 113.05 55.9026 108.396C55.9024 103.743 52.128 99.9661 47.4731 99.9661Z" fill="#D78100"/>
<path d="M84.9185 99.9661C80.2625 99.9661 76.4911 103.743 76.4911 108.396C76.4911 113.05 80.2625 116.823 84.9185 116.823C89.5736 116.823 93.348 113.05 93.348 108.396C93.348 103.743 89.5736 99.9661 84.9185 99.9661Z" fill="#D78100"/>
</svg>
