<svg width="87" height="87" viewBox="0 0 87 87" fill="none" xmlns="http://www.w3.org/2000/svg">
<path d="M47.125 14.5H31.9C25.8094 14.5 22.7641 14.5 20.4379 15.6853C18.3916 16.7279 16.7279 18.3916 15.6853 20.4379C14.5 22.7641 14.5 25.8094 14.5 31.9V55.1C14.5 61.1907 14.5 64.2357 15.6853 66.5622C16.7279 68.6086 18.3916 70.2721 20.4379 71.3146C22.7641 72.5 25.8094 72.5 31.9 72.5H55.1C61.1907 72.5 64.2357 72.5 66.5622 71.3146C68.6086 70.2721 70.2721 68.6086 71.3146 66.5622C72.5 64.2357 72.5 61.1907 72.5 55.1V39.875" stroke="black" stroke-width="5" stroke-linecap="round" stroke-linejoin="round"/>
<path d="M14.5 57.9999L30.0617 42.4381C31.4774 41.0226 33.7726 41.0226 35.1883 42.4381L47.125 54.3749M47.125 54.3749L57.2493 44.2506C58.6648 42.8351 60.9602 42.8351 62.3757 44.2506L72.5 54.3749M47.125 54.3749L55.2812 62.5311" stroke="black" stroke-width="5" stroke-linecap="round" stroke-linejoin="round"/>
<path d="M67.0625 10.875V19.9375M67.0625 19.9375V29M67.0625 19.9375H58M67.0625 19.9375H76.125" stroke="black" stroke-width="5" stroke-linecap="round" stroke-linejoin="round"/>
</svg>
