<svg width="92" height="92" viewBox="0 0 92 92" fill="none" xmlns="http://www.w3.org/2000/svg">
<g clip-path="url(#clip0_167_97)">
<path fill-rule="evenodd" clip-rule="evenodd" d="M13.2702 21.1114V48.2189C13.2702 68.4589 31.1993 78.1892 45.6 86.0092L45.9843 86.2149L46.3739 86.0092C60.7746 78.1892 78.7038 68.4589 78.7038 48.2189V21.1114L45.9844 5.69863L13.2701 21.1114H13.2702ZM45.9843 92.0055C45.5405 92.0055 45.0967 91.8918 44.6909 91.6753L43.0186 90.7661C28.1796 82.708 7.8584 71.6789 7.8584 48.2189V19.3958C7.8584 18.3459 8.46454 17.3934 9.41157 16.9442L44.837 0.259756C45.5622 -0.0865854 46.4118 -0.0865854 47.137 0.259756L82.5624 16.9443C83.5095 17.3935 84.1156 18.346 84.1156 19.3959V48.2189C84.1156 71.6789 63.789 82.7081 48.9553 90.7662L47.2831 91.6754C46.8772 91.8918 46.4335 92.0055 45.9843 92.0055ZM68.369 65.7638H53.3513L48.9624 61.3803V57.3647H43.3666V51.769H39.3565L36.5532 48.9657C36.4612 48.9711 36.3692 48.9711 36.2772 48.9711C27.8403 48.9711 20.9781 42.109 20.9781 33.672C20.9781 25.2351 27.8403 18.3676 36.2772 18.3676C44.7141 18.3676 51.5763 25.2351 51.5763 33.672C51.5763 33.764 51.5763 33.856 51.5709 33.9426L68.369 50.7461L68.369 65.7638ZM55.5918 60.352H62.9572V52.9866L45.9264 35.945L46.1158 34.1591C46.1645 28.2224 41.7269 23.7794 36.2772 23.7794C30.8275 23.7794 26.3899 28.2224 26.3899 33.672C26.3899 39.1271 30.8275 43.5594 36.2772 43.5594L38.5393 43.305L41.597 46.3573H48.7784V51.953H54.3741V59.1398L55.5918 60.352ZM40.5747 33.8268C40.5747 36.0673 38.7563 37.8856 36.5159 37.8856C34.2754 37.8856 32.457 36.0673 32.457 33.8268C32.457 31.5863 34.2754 29.768 36.5159 29.768C38.7563 29.768 40.5747 31.5863 40.5747 33.8268Z" fill="#66367C"/>
</g>
<defs>
<clipPath id="clip0_167_97">
<rect width="92" height="92" fill="white"/>
</clipPath>
</defs>
</svg>
