<svg width="160" height="160" viewBox="0 0 160 160" fill="none" xmlns="http://www.w3.org/2000/svg">
<g clip-path="url(#clip0_11_150)">
<path d="M114.333 67C109.425 67.0968 104.622 65.5738 100.667 62.6667C99.9261 62.1741 99.0943 61.8348 98.2204 61.6687C97.3466 61.5026 96.4483 61.513 95.5785 61.6994C94.7088 61.8858 93.8851 62.2443 93.1561 62.7539C92.427 63.2635 91.8073 63.9139 91.3334 64.6667C90.8078 65.2919 90.4154 66.0178 90.1802 66.8C89.945 67.5822 89.8719 68.4041 89.9656 69.2155C90.0592 70.0269 90.3175 70.8107 90.7247 71.5187C91.1318 72.2268 91.6793 72.8443 92.3334 73.3333C96.6227 76.3435 101.512 78.3903 106.667 79.3333V86.6667C106.667 88.4348 107.369 90.1305 108.619 91.3807C109.87 92.631 111.565 93.3333 113.333 93.3333C115.102 93.3333 116.797 92.631 118.047 91.3807C119.298 90.1305 120 88.4348 120 86.6667V79.3333C123.657 78.7941 127.106 77.2993 130 75C132.09 73.466 133.784 71.4567 134.943 69.1383C136.103 66.8198 136.693 64.2587 136.667 61.6667C136.667 49.3333 125.333 45.3333 115.667 43.3333C106 41.3333 104 39 104 37.3333C104 35.6667 104.667 35.3333 105.667 34.3333C107.506 33.3447 109.582 32.8833 111.667 33C115.54 32.9664 119.347 34.0047 122.667 36C123.342 36.5507 124.128 36.9478 124.972 37.1639C125.816 37.3799 126.696 37.4097 127.553 37.2511C128.409 37.0925 129.221 36.7493 129.931 36.2455C130.642 35.7416 131.234 35.0891 131.667 34.3333C132.238 33.6517 132.66 32.8574 132.903 32.0021C133.147 31.1467 133.209 30.2496 133.083 29.3691C132.957 28.4887 132.647 27.6445 132.173 26.8917C131.7 26.139 131.073 25.4944 130.333 25C127.164 23.0435 123.661 21.6876 120 21V13.3333C120 11.5652 119.298 9.86954 118.047 8.61929C116.797 7.36905 115.102 6.66667 113.333 6.66667C111.565 6.66667 109.87 7.36905 108.619 8.61929C107.369 9.86954 106.667 11.5652 106.667 13.3333V20.6667C96.6668 22.3333 90.0001 29 90.0001 38C90.0001 47 101 54.3333 111.667 56.3333C122.333 58.3333 122.667 60.6667 122.667 62.3333C122.667 64 119 67 114.333 67Z" fill="#217E00"/>
<path d="M140.667 105.667C138.815 104.173 136.675 103.077 134.381 102.446C132.088 101.815 129.688 101.663 127.333 102L94.3333 108C94.3507 105.945 93.9454 103.908 93.1426 102.015C92.3398 100.123 91.1567 98.4159 89.6667 97L66 73.3333H16.6667C14.8986 73.3333 13.2029 74.0357 11.9526 75.286C10.7024 76.5362 10 78.2319 10 80V110C10 111.768 10.7024 113.464 11.9526 114.714C13.2029 115.964 14.8986 116.667 16.6667 116.667H27.6667L65 147L133 134.667C136.072 134.067 138.913 132.614 141.198 130.474C143.483 128.335 145.119 125.595 145.919 122.569C146.719 119.542 146.651 116.352 145.722 113.363C144.793 110.374 143.041 107.706 140.667 105.667ZM130.667 121.667L68.3333 133L33.3333 104V86.6667H60.6667L80.3333 106.333C80.8638 106.864 81.1618 107.583 81.1618 108.333C81.1618 109.083 80.8638 109.803 80.3333 110.333C79.8029 110.864 79.0835 111.162 78.3333 111.162C77.5832 111.162 76.8638 110.864 76.3333 110.333L64.6667 98.6667C63.3829 97.7038 61.7948 97.2364 60.1941 97.3501C58.5933 97.4639 57.0874 98.1512 55.9526 99.286C54.8179 100.421 54.1305 101.927 54.0168 103.527C53.903 105.128 54.3705 106.716 55.3333 108L67 119.667C68.4541 121.199 70.2152 122.406 72.1683 123.21C74.1213 124.015 76.2222 124.397 78.3333 124.333C80.3741 124.324 82.4 123.987 84.3333 123.333L129.667 115.333C130.608 115.201 131.565 115.44 132.333 116C132.66 116.292 132.92 116.653 133.092 117.056C133.265 117.459 133.347 117.895 133.333 118.333C133.349 119.113 133.091 119.874 132.604 120.483C132.116 121.092 131.431 121.511 130.667 121.667Z" fill="#217E00"/>
</g>
<defs>
<clipPath id="clip0_11_150">
<rect width="160" height="160" fill="white"/>
</clipPath>
</defs>
</svg>
