<svg width="48" height="48" viewBox="0 0 48 48" fill="none" xmlns="http://www.w3.org/2000/svg">
<g clip-path="url(#clip0_735_2)">
<path d="M5.56619 41.9982L43.0646 5.99976" stroke="#71717A" stroke-width="3.75" stroke-linecap="round" stroke-linejoin="round"/>
<path d="M39.4982 17.7593C41.7272 19.3863 43.7868 21.2336 45.6458 23.273C46.196 23.8838 46.5006 24.6768 46.5006 25.499C46.5006 26.321 46.196 27.114 45.6458 27.7248C40.514 33.3726 32.1984 39.1364 23.9988 38.9984C21.9658 39.0136 19.9427 38.7182 17.9993 38.1228" stroke="#71717A" stroke-width="3.75" stroke-linecap="round" stroke-linejoin="round"/>
<path d="M7.55832 32.5206C5.69188 31.0714 3.95232 29.4656 2.35854 27.7208C1.80833 27.11 1.50385 26.317 1.50385 25.495C1.50385 24.6728 1.80833 23.8798 2.35854 23.269C7.60032 17.5033 15.938 11.8655 23.9996 11.9995C25.5498 11.9822 27.096 12.1536 28.6042 12.5098" stroke="#71717A" stroke-width="3.75" stroke-linecap="round" stroke-linejoin="round"/>
<path d="M23.9988 17.9993C23.0138 17.999 22.0384 18.1928 21.1284 18.5696C20.2184 18.9464 19.3915 19.4988 18.695 20.1952C17.9986 20.8918 17.4462 21.7186 17.0694 22.6286C16.7016 23.517 16.5081 24.4676 16.4993 25.4286" stroke="#71717A" stroke-width="3.75" stroke-linecap="round" stroke-linejoin="round"/>
<path d="M23.999 32.9986C24.984 32.9986 25.9594 32.8046 26.8694 32.4276C27.7796 32.0506 28.6064 31.498 29.3028 30.8014C29.9992 30.1048 30.5516 29.2778 30.9284 28.3676C31.299 27.4724 31.4926 26.5142 31.4986 25.5458" stroke="#71717A" stroke-width="3.75" stroke-linecap="round" stroke-linejoin="round"/>
</g>
<defs>
<clipPath id="clip0_735_2">
<rect width="48" height="48" fill="white"/>
</clipPath>
</defs>
</svg>
