<svg width="54" height="54" viewBox="0 0 54 54" fill="none" xmlns="http://www.w3.org/2000/svg">
<path fill-rule="evenodd" clip-rule="evenodd" d="M27 18.5625C22.3401 18.5625 18.5625 22.3401 18.5625 27C18.5625 31.66 22.3401 35.4375 27 35.4375C31.66 35.4375 35.4375 31.66 35.4375 27C35.4375 22.3401 31.66 18.5625 27 18.5625ZM21.9375 27C21.9375 24.2042 24.2042 21.9375 27 21.9375C29.7958 21.9375 32.0625 24.2042 32.0625 27C32.0625 29.7958 29.7958 32.0625 27 32.0625C24.2042 32.0625 21.9375 29.7958 21.9375 27Z" fill="#1C274C"/>
<path fill-rule="evenodd" clip-rule="evenodd" d="M27 7.3125C16.8432 7.3125 10.0019 13.3969 6.03128 18.5554L5.95967 18.6485C5.06169 19.8147 4.23463 20.8888 3.67355 22.1589C3.07269 23.519 2.8125 25.0013 2.8125 27C2.8125 28.9987 3.07269 30.481 3.67355 31.8411C4.23463 33.1112 5.06169 34.1854 5.95969 35.3515L6.03128 35.4445C10.0019 40.6031 16.8432 46.6875 27 46.6875C37.1567 46.6875 43.9981 40.6031 47.9687 35.4445L48.0402 35.3515C48.9384 34.1854 49.7653 33.1112 50.3264 31.8411C50.9274 30.481 51.1875 28.9987 51.1875 27C51.1875 25.0013 50.9274 23.519 50.3264 22.1589C49.7653 20.8888 48.9384 19.8147 48.0402 18.6484L47.9687 18.5554C43.9981 13.3969 37.1567 7.3125 27 7.3125ZM8.70575 20.6141C12.3719 15.8511 18.3383 10.6875 27 10.6875C35.6616 10.6875 41.6282 15.8511 45.2943 20.6141C46.2812 21.8961 46.8592 22.6622 47.2392 23.5226C47.5947 24.327 47.8125 25.31 47.8125 27C47.8125 28.69 47.5947 29.673 47.2392 30.4774C46.8592 31.3378 46.2812 32.1039 45.2943 33.3859C41.6282 38.149 35.6616 43.3125 27 43.3125C18.3383 43.3125 12.3719 38.149 8.70575 33.3859C7.71894 32.1039 7.14091 31.3378 6.76071 30.4774C6.40539 29.673 6.1875 28.69 6.1875 27C6.1875 25.31 6.40539 24.327 6.76071 23.5226C7.14091 22.6622 7.71892 21.8961 8.70575 20.6141Z" fill="#1C274C"/>
</svg>
