<svg width="34" height="35" viewBox="0 0 34 35" fill="none" xmlns="http://www.w3.org/2000/svg">
<path fill-rule="evenodd" clip-rule="evenodd" d="M18.2129 0C19.8188 0 21.1985 1.08406 21.5007 2.58328L21.635 3.24995C22.1631 5.87036 25.0146 7.4352 27.6661 6.55972L28.341 6.33689C29.858 5.83601 31.5356 6.42969 32.3385 7.75161L33.5514 9.74829C34.3544 11.0703 34.0564 12.748 32.8415 13.7463L32.3013 14.1902C30.1776 15.9352 30.1776 19.0649 32.3013 20.8097L32.8415 21.2536C34.0564 22.252 34.3544 23.9297 33.5514 25.2517L32.3386 27.2483C31.5356 28.5703 29.858 29.1639 28.3409 28.663L27.6663 28.4402C25.0146 27.5646 22.1631 29.1294 21.635 31.75L21.5007 32.4167C21.1985 33.9159 19.8188 35 18.2129 35H15.7871C14.1813 35 12.8015 33.9159 12.4993 32.4168L12.3649 31.7497C11.8368 29.1294 8.9852 27.5646 6.33361 28.4402L5.65913 28.6629C4.14207 29.1639 2.46446 28.5702 1.66144 27.2482L0.448645 25.2517C-0.354344 23.9297 -0.0564929 22.252 1.15841 21.2536L1.69879 20.8097C3.82228 19.0647 3.82228 15.9352 1.69879 14.1903L1.15841 13.7463C-0.0564929 12.748 -0.354342 11.0703 0.448645 9.74835L1.66149 7.75166C2.46448 6.4297 4.14204 5.83602 5.65909 6.33693L6.33375 6.5597C8.98529 7.4352 11.8368 5.87046 12.3649 3.25012L12.4993 2.58316C12.8015 1.084 14.1811 0 15.7871 0H18.2129ZM17 22.5C19.8166 22.5 22.1 20.2614 22.1 17.5C22.1 14.7385 19.8166 12.5 17 12.5C14.1833 12.5 11.9 14.7385 11.9 17.5C11.9 20.2614 14.1833 22.5 17 22.5Z" fill="#163450"/>
</svg>
