<svg width="111" height="111" viewBox="0 0 111 111" fill="none" xmlns="http://www.w3.org/2000/svg">
<path d="M52.17 46.0606C52.17 47.8996 53.661 49.3906 55.5 49.3906C57.3391 49.3906 58.83 47.8996 58.83 46.0606H52.17ZM58.83 19.98C58.83 18.1409 57.3391 16.65 55.5 16.65C53.661 16.65 52.17 18.1409 52.17 19.98H58.83ZM43.56 31.7974C45.2338 31.0352 45.9726 29.0605 45.2107 27.3867C44.4484 25.713 42.4737 24.974 40.8 25.7362L43.56 31.7974ZM24.42 56.2104L21.0896 56.1931L21.0902 56.2491L24.42 56.2104ZM55.5 86.58L55.5382 83.25C55.5129 83.25 55.4871 83.25 55.4618 83.25L55.5 86.58ZM86.58 56.2104L89.9104 56.2491L89.91 56.1931L86.58 56.2104ZM70.2 25.7362C68.5261 24.974 66.5516 25.713 65.7893 27.3867C65.0274 29.0605 65.7662 31.0352 67.4401 31.7974L70.2 25.7362ZM58.83 46.0606V19.98H52.17V46.0606H58.83ZM40.8 25.7362C28.853 31.1764 21.1583 43.0659 21.0896 56.1931L27.75 56.2277C27.8051 45.6981 33.9769 36.1612 43.56 31.7974L40.8 25.7362ZM21.0902 56.2491C21.3091 75.0564 36.7311 90.1258 55.5382 89.91L55.4618 83.25C40.3322 83.4241 27.9259 71.3011 27.7498 56.1718L21.0902 56.2491ZM55.4618 89.91C74.2688 90.1258 89.692 75.0564 89.9104 56.2491L83.2504 56.1718C83.0742 71.3011 70.6679 83.4241 55.5382 83.25L55.4618 89.91ZM89.91 56.1931C89.8412 43.0659 82.1471 31.1764 70.2 25.7362L67.4401 31.7974C77.0229 36.1612 83.195 45.6981 83.25 56.2277L89.91 56.1931Z" fill="#9EA200"/>
</svg>
