<svg width="156" height="156" viewBox="0 0 156 156" fill="none" xmlns="http://www.w3.org/2000/svg">
<path d="M6.5 78C6.5 74.4101 9.41018 71.5 13 71.5H143C146.59 71.5 149.5 74.4101 149.5 78C149.5 81.5899 146.59 84.5 143 84.5H13C9.41018 84.5 6.5 81.5899 6.5 78Z" fill="#0F0F0F"/>
<path d="M6.5 26C6.5 22.4102 9.41018 19.5 13 19.5H143C146.59 19.5 149.5 22.4102 149.5 26C149.5 29.5898 146.59 32.5 143 32.5H13C9.41018 32.5 6.5 29.5898 6.5 26Z" fill="#0F0F0F"/>
<path d="M6.5 130C6.5 126.41 9.41018 123.5 13 123.5H143C146.59 123.5 149.5 126.41 149.5 130C149.5 133.59 146.59 136.5 143 136.5H13C9.41018 136.5 6.5 133.59 6.5 130Z" fill="#0F0F0F"/>
</svg>
