<svg width="194" height="194" viewBox="0 0 194 194" fill="none" xmlns="http://www.w3.org/2000/svg">
<path d="M180.621 31.7759H13.3793C6.91372 31.7759 1.67236 37.0172 1.67236 43.4828V150.517C1.67236 156.983 6.91372 162.224 13.3793 162.224H180.621C187.086 162.224 192.328 156.983 192.328 150.517V43.4828C192.328 37.0172 187.086 31.7759 180.621 31.7759Z" fill="white" stroke="#F3F3F3" stroke-width="1.03448"/>
<path d="M137.823 101.76H105.046L101.713 105.513L90.8957 117.691L87.5623 121.445H55.2191L58.5011 117.644L60.0544 115.845L63.3363 112.045H48.4331C45.7108 112.045 43.4828 114.329 43.4828 117.121V127.832C43.4828 130.624 45.7108 132.908 48.4331 132.908H105.488C108.211 132.908 111.93 131.212 113.753 129.138L122.384 119.321L137.823 101.76Z" fill="#005697"/>
<path d="M144.408 90.3103C147.131 90.3103 149.359 92.5949 149.359 95.3868V106.097C149.359 108.889 147.131 111.174 144.408 111.174H129.554L132.867 107.402L134.51 105.532L137.823 101.76H105.047L87.5625 121.459H55.0187L78.3575 95.0694L79.2406 94.0706C81.0702 92.0025 84.7943 90.3103 87.517 90.3103H144.408Z" fill="#FBD500"/>
<path fill-rule="evenodd" clip-rule="evenodd" d="M54.6395 151.116C54.6395 150.417 54.4746 149.811 54.1451 149.3C53.8153 148.789 53.3818 148.399 52.844 148.13C53.3818 147.861 53.7986 147.464 54.095 146.94C54.3906 146.415 54.5385 145.823 54.5385 145.165V144.801C54.5385 143.994 54.3839 143.322 54.0749 142.784C53.7652 142.246 53.3313 141.815 52.7731 141.493C52.2152 141.17 51.5459 140.938 50.7662 140.796C49.9855 140.655 49.1185 140.585 48.1632 140.585C47.8408 140.585 47.5043 140.591 47.1548 140.605C46.8046 140.618 46.4654 140.635 46.1359 140.655C45.8065 140.675 45.5034 140.699 45.2282 140.726C44.9522 140.753 44.7268 140.78 44.5522 140.807C44.1622 140.874 43.8865 140.995 43.7253 141.17C43.5638 141.345 43.4832 141.661 43.4832 142.118V154.384C43.4832 154.842 43.5668 155.158 43.7354 155.332C43.9033 155.507 44.1889 155.628 44.5926 155.696C44.7943 155.736 45.0365 155.769 45.3188 155.796C45.6011 155.823 45.9068 155.847 46.2366 155.867C46.5664 155.887 46.9056 155.904 47.2555 155.917C47.6053 155.93 47.9478 155.938 48.2843 155.938C49.1587 155.938 49.9822 155.87 50.7561 155.736C51.5288 155.602 52.2014 155.363 52.7731 155.019C53.345 154.677 53.7986 154.213 54.1351 153.628C54.4712 153.043 54.6395 152.306 54.6395 151.418V151.116ZM51.2097 145.326C51.2097 145.541 51.1763 145.747 51.1087 145.941C51.0415 146.136 50.9307 146.304 50.7762 146.446C50.621 146.587 50.413 146.701 50.1507 146.788C49.8885 146.876 49.5554 146.92 49.152 146.92H46.8925V143.429C46.9598 143.429 47.0641 143.427 47.2053 143.419C47.3464 143.412 47.4943 143.409 47.6488 143.409H48.4255C49.461 143.409 50.1842 143.54 50.5943 143.802C51.0043 144.065 51.2097 144.472 51.2097 145.023V145.326ZM50.6953 152.649C51.092 152.34 51.2906 151.903 51.2906 151.338V151.116C51.2906 150.632 51.1355 150.212 50.8264 149.855C50.5167 149.499 49.9587 149.32 49.152 149.32H46.8925V153.093H47.2454C47.3999 153.093 47.5612 153.097 47.7297 153.103C47.8977 153.11 48.0589 153.114 48.2141 153.114H48.5466C49.5821 153.114 50.2986 152.959 50.6953 152.649ZM65.6952 148.15C65.6952 147.411 65.5841 146.782 65.362 146.264C65.1402 145.747 64.8275 145.322 64.4241 144.993C64.0204 144.663 63.5264 144.422 62.941 144.267C62.356 144.112 61.7004 144.035 60.9743 144.035C60.3013 144.035 59.6457 144.082 59.0072 144.176C58.368 144.27 57.8602 144.364 57.4839 144.458C57.2284 144.526 57.1006 144.673 57.1006 144.902V146.536C57.1006 146.671 57.1341 146.765 57.2016 146.819C57.2685 146.872 57.3558 146.9 57.4639 146.9H57.5645L58.17 146.849C58.4118 146.829 58.6844 146.812 58.9871 146.798C59.2895 146.785 59.6056 146.775 59.935 146.768C60.2645 146.762 60.5909 146.758 60.9137 146.758C61.3843 146.758 61.7543 146.846 62.0232 147.021C62.2921 147.195 62.4266 147.572 62.4266 148.15V148.877H61.3372C59.6022 148.877 58.3412 149.149 57.5545 149.694C56.7678 150.238 56.3741 151.103 56.3741 152.286V152.468C56.3741 153.127 56.4718 153.678 56.6668 154.122C56.8615 154.566 57.1207 154.922 57.4435 155.192C57.7662 155.46 58.1325 155.652 58.5429 155.766C58.9533 155.88 59.3804 155.938 59.8243 155.938C60.4294 155.938 60.9505 155.857 61.3877 155.696C61.8245 155.534 62.2379 155.312 62.6286 155.03V155.353C62.6286 155.46 62.6687 155.555 62.7494 155.635C62.8303 155.716 62.9243 155.756 63.032 155.756H65.2914C65.3988 155.756 65.4931 155.716 65.5741 155.635C65.6547 155.555 65.6952 155.46 65.6952 155.353V148.15ZM61.7105 153.345C61.9857 153.258 62.2453 153.154 62.4871 153.033V150.813H61.3372C60.9876 150.813 60.6983 150.844 60.4699 150.904C60.2411 150.965 60.0591 151.055 59.925 151.177C59.7905 151.297 59.6965 151.452 59.6427 151.64C59.5888 151.829 59.5617 152.044 59.5617 152.286V152.468C59.5617 152.898 59.6658 153.174 59.8745 153.295C60.0832 153.416 60.4023 153.476 60.8328 153.476C61.1422 153.476 61.4345 153.433 61.7105 153.345ZM78.0416 155.332V148.614C78.0416 147.983 77.9914 147.387 77.8904 146.829C77.7894 146.271 77.6081 145.787 77.3459 145.376C77.0836 144.966 76.7204 144.64 76.2561 144.398C75.7925 144.156 75.1971 144.035 74.4706 144.035C73.8251 144.035 73.2535 144.113 72.7561 144.268C72.2584 144.424 71.7339 144.699 71.1827 145.092V144.603C71.1827 144.495 71.1419 144.4 71.0616 144.318C70.9806 144.237 70.8863 144.196 70.7786 144.196H68.5195C68.4115 144.196 68.3175 144.236 68.2372 144.317C68.1563 144.398 68.1161 144.492 68.1161 144.6V155.332C68.1161 155.44 68.1593 155.537 68.2472 155.625C68.3342 155.712 68.4319 155.756 68.5396 155.756H70.9806C71.0884 155.756 71.1827 155.712 71.263 155.625C71.3439 155.538 71.384 155.441 71.384 155.333V147.402C71.7339 147.214 72.063 147.06 72.3728 146.94C72.6818 146.819 72.9842 146.758 73.2805 146.758C73.5896 146.758 73.8418 146.788 74.0371 146.849C74.2318 146.91 74.383 147.013 74.4907 147.162C74.5984 147.309 74.6727 147.503 74.7128 147.744C74.7529 147.986 74.7737 148.281 74.7737 148.63V155.333C74.7737 155.441 74.8138 155.538 74.8948 155.625C74.975 155.712 75.069 155.756 75.1771 155.756H77.6181C77.7255 155.756 77.8228 155.712 77.9105 155.625C77.9981 155.537 78.0416 155.44 78.0416 155.332ZM87.9677 153.376V155.171C87.9677 155.319 87.9339 155.423 87.8667 155.484C87.7994 155.544 87.6917 155.595 87.5439 155.635C87.2613 155.702 86.895 155.769 86.4445 155.837C85.9936 155.904 85.4658 155.938 84.8607 155.938C83.4348 155.938 82.2949 155.501 81.4413 154.626C80.587 153.752 80.1602 152.488 80.1602 150.833V149.139C80.1602 147.484 80.587 146.22 81.4413 145.346C82.2949 144.472 83.4348 144.035 84.8607 144.035C85.4658 144.035 85.9936 144.068 86.4445 144.135C86.895 144.203 87.2613 144.27 87.5439 144.337C87.6917 144.377 87.7994 144.428 87.8667 144.489C87.9339 144.549 87.9677 144.653 87.9677 144.801V146.597C87.9677 146.704 87.9306 146.788 87.8566 146.849C87.7827 146.91 87.6917 146.94 87.5844 146.94H87.5439C87.1673 146.9 86.8077 146.866 86.4645 146.839C86.1217 146.812 85.6608 146.798 85.0824 146.798C84.854 146.798 84.6389 146.836 84.4369 146.909C84.2352 146.983 84.0603 147.111 83.9124 147.293C83.7642 147.474 83.6468 147.716 83.5592 148.019C83.4719 148.322 83.4281 148.695 83.4281 149.139V150.833C83.4281 151.277 83.4719 151.65 83.5592 151.953C83.6468 152.256 83.7642 152.498 83.9124 152.679C84.0603 152.861 84.2352 152.989 84.4369 153.063C84.6389 153.137 84.854 153.174 85.0824 153.174C85.6608 153.174 86.1217 153.16 86.4645 153.134C86.8077 153.106 87.1673 153.073 87.5439 153.033H87.5844C87.6917 153.033 87.7827 153.063 87.8566 153.123C87.9306 153.184 87.9677 153.268 87.9677 153.376ZM99.1648 149.28C99.1648 148.473 99.0534 147.747 98.831 147.101C98.6086 146.456 98.2851 145.908 97.8607 145.457C97.4362 145.007 96.9104 144.657 96.2843 144.408C95.6574 144.159 94.933 144.035 94.1108 144.035C93.289 144.035 92.5645 144.159 91.938 144.408C91.3112 144.657 90.782 145.007 90.3509 145.457C89.9194 145.908 89.5926 146.456 89.3708 147.101C89.1477 147.747 89.0367 148.473 89.0367 149.28V150.692C89.0367 151.499 89.1477 152.225 89.3708 152.871C89.5926 153.517 89.9194 154.065 90.3509 154.515C90.782 154.966 91.3112 155.316 91.938 155.565C92.5645 155.813 93.289 155.938 94.1108 155.938C94.933 155.938 95.6574 155.813 96.2843 155.565C96.9104 155.316 97.4362 154.966 97.8607 154.515C98.2851 154.065 98.6086 153.517 98.831 152.871C99.0534 152.225 99.1648 151.499 99.1648 150.692V149.28ZM94.1108 153.174C95.3012 153.174 95.8963 152.347 95.8963 150.692V149.28C95.8963 147.639 95.3012 146.819 94.1108 146.819C93.5224 146.819 93.0746 147.024 92.7668 147.434C92.4591 147.844 92.3053 148.46 92.3053 149.28V150.692C92.3053 151.513 92.4591 152.131 92.7668 152.548C93.0746 152.965 93.5224 153.174 94.1108 153.174ZM111.168 155.332V148.614C111.168 147.983 111.117 147.387 111.017 146.829C110.916 146.271 110.734 145.787 110.472 145.376C110.209 144.966 109.847 144.64 109.383 144.398C108.919 144.156 108.323 144.035 107.597 144.035C106.952 144.035 106.38 144.113 105.882 144.268C105.385 144.424 104.86 144.699 104.309 145.092V144.603C104.309 144.495 104.269 144.4 104.187 144.318C104.107 144.237 104.013 144.196 103.905 144.196H101.646C101.538 144.196 101.444 144.236 101.363 144.317C101.283 144.398 101.242 144.492 101.242 144.6V155.332C101.242 155.44 101.286 155.537 101.373 155.625C101.461 155.712 101.558 155.756 101.666 155.756H104.107C104.215 155.756 104.309 155.712 104.39 155.625C104.47 155.538 104.511 155.441 104.511 155.333V147.402C104.86 147.214 105.19 147.06 105.499 146.94C105.809 146.819 106.111 146.758 106.407 146.758C106.716 146.758 106.969 146.788 107.163 146.849C107.358 146.91 107.51 147.013 107.618 147.162C107.725 147.309 107.799 147.503 107.84 147.744C107.88 147.986 107.9 148.281 107.9 148.63V155.333C107.9 155.441 107.94 155.538 108.021 155.625C108.102 155.712 108.196 155.756 108.303 155.756H110.744C110.852 155.756 110.95 155.712 111.037 155.625C111.124 155.537 111.168 155.44 111.168 155.332ZM119.965 153.816V155.378C119.965 155.604 119.837 155.738 119.581 155.777C119.272 155.831 119.003 155.871 118.775 155.897C118.546 155.924 118.283 155.938 117.988 155.938C117.439 155.938 116.954 155.894 116.533 155.806C116.112 155.719 115.761 155.548 115.48 155.292C115.2 155.036 114.986 154.684 114.839 154.233C114.692 153.782 114.618 153.201 114.618 152.488V146.638L113.004 146.375C112.896 146.348 112.799 146.298 112.712 146.223C112.624 146.15 112.581 146.059 112.581 145.951V144.62C112.581 144.512 112.624 144.415 112.712 144.327C112.799 144.24 112.896 144.196 113.004 144.196H114.618V142.541C114.618 142.434 114.658 142.347 114.738 142.279C114.818 142.212 114.912 142.166 115.02 142.138L117.466 141.715H117.526C117.632 141.715 117.72 141.745 117.786 141.805C117.853 141.866 117.887 141.95 117.887 142.057V144.196H119.541C119.648 144.196 119.743 144.237 119.823 144.318C119.904 144.399 119.945 144.495 119.945 144.603V146.251C119.945 146.359 119.904 146.454 119.823 146.535C119.743 146.617 119.648 146.657 119.541 146.657H117.887V152.528C117.887 152.932 117.92 153.191 117.988 153.305C118.055 153.419 118.243 153.476 118.552 153.476H119.541C119.823 153.476 119.965 153.589 119.965 153.816ZM130.737 148.15C130.737 147.411 130.627 146.782 130.404 146.264C130.183 145.747 129.87 145.322 129.467 144.993C129.063 144.663 128.569 144.422 127.984 144.267C127.399 144.112 126.743 144.035 126.017 144.035C125.344 144.035 124.689 144.082 124.05 144.176C123.411 144.27 122.903 144.364 122.527 144.458C122.27 144.526 122.143 144.673 122.143 144.902V146.536C122.143 146.671 122.177 146.765 122.244 146.819C122.311 146.872 122.399 146.9 122.506 146.9H122.607L123.212 146.849C123.455 146.829 123.727 146.812 124.03 146.798C124.332 146.785 124.648 146.775 124.978 146.768C125.307 146.762 125.633 146.758 125.956 146.758C126.427 146.758 126.797 146.846 127.066 147.021C127.335 147.195 127.469 147.572 127.469 148.15V148.877H126.38C124.644 148.877 123.384 149.149 122.597 149.694C121.81 150.238 121.417 151.103 121.417 152.286V152.468C121.417 153.127 121.514 153.678 121.709 154.122C121.904 154.566 122.164 154.922 122.486 155.192C122.809 155.46 123.175 155.652 123.586 155.766C123.996 155.88 124.423 155.938 124.867 155.938C125.472 155.938 125.993 155.857 126.43 155.696C126.867 155.534 127.28 155.312 127.671 155.03V155.353C127.671 155.46 127.711 155.555 127.792 155.635C127.873 155.716 127.967 155.756 128.075 155.756H130.334C130.442 155.756 130.536 155.716 130.617 155.635C130.697 155.555 130.737 155.46 130.737 155.353V148.15ZM126.753 153.345C127.029 153.258 127.288 153.154 127.53 153.033V150.813H126.38C126.03 150.813 125.741 150.844 125.512 150.904C125.284 150.965 125.102 151.055 124.968 151.177C124.833 151.297 124.739 151.452 124.686 151.64C124.631 151.829 124.605 152.044 124.605 152.286V152.468C124.605 152.898 124.709 153.174 124.917 153.295C125.126 153.416 125.445 153.476 125.876 153.476C126.185 153.476 126.477 153.433 126.753 153.345ZM140.663 155.171V153.376C140.663 153.268 140.626 153.184 140.552 153.123C140.478 153.063 140.388 153.033 140.28 153.033H140.24C139.863 153.073 139.503 153.106 139.16 153.134C138.818 153.16 138.357 153.174 137.779 153.174C137.549 153.174 137.334 153.137 137.133 153.063C136.931 152.989 136.756 152.861 136.608 152.679C136.46 152.498 136.343 152.256 136.255 151.953C136.167 151.65 136.124 151.277 136.124 150.833V149.139C136.124 148.695 136.167 148.322 136.255 148.019C136.343 147.716 136.46 147.474 136.608 147.293C136.756 147.111 136.931 146.983 137.133 146.909C137.334 146.836 137.549 146.798 137.779 146.798C138.357 146.798 138.818 146.812 139.16 146.839C139.503 146.866 139.863 146.9 140.24 146.94H140.28C140.388 146.94 140.478 146.91 140.552 146.849C140.626 146.788 140.663 146.704 140.663 146.597V144.801C140.663 144.653 140.63 144.549 140.562 144.489C140.495 144.428 140.388 144.377 140.24 144.337C139.958 144.27 139.59 144.203 139.14 144.135C138.689 144.068 138.162 144.035 137.557 144.035C136.13 144.035 134.991 144.472 134.137 145.346C133.283 146.22 132.856 147.484 132.856 149.139V150.833C132.856 152.488 133.283 153.752 134.137 154.626C134.991 155.501 136.13 155.938 137.557 155.938C138.162 155.938 138.689 155.904 139.14 155.837C139.59 155.769 139.958 155.702 140.24 155.635C140.388 155.595 140.495 155.544 140.562 155.484C140.63 155.423 140.663 155.319 140.663 155.171ZM149.359 153.816V155.378C149.359 155.604 149.231 155.738 148.975 155.777C148.666 155.831 148.397 155.871 148.169 155.897C147.939 155.924 147.677 155.938 147.382 155.938C146.833 155.938 146.348 155.894 145.927 155.806C145.506 155.719 145.155 155.548 144.875 155.292C144.594 155.036 144.38 154.684 144.233 154.233C144.086 153.782 144.012 153.201 144.012 152.488V146.638L142.399 146.375C142.291 146.348 142.193 146.298 142.106 146.223C142.018 146.15 141.975 146.059 141.975 145.951V144.62C141.975 144.512 142.018 144.415 142.106 144.327C142.193 144.24 142.291 144.196 142.399 144.196H144.012V142.541C144.012 142.434 144.052 142.347 144.133 142.279C144.212 142.212 144.306 142.166 144.413 142.138L146.859 141.715H146.92C147.027 141.715 147.114 141.745 147.18 141.805C147.247 141.866 147.281 141.95 147.281 142.057V144.196H148.935C149.042 144.196 149.137 144.237 149.217 144.318C149.298 144.399 149.339 144.495 149.339 144.603V146.251C149.339 146.359 149.298 146.454 149.217 146.535C149.137 146.617 149.042 146.657 148.935 146.657H147.281V152.528C147.281 152.932 147.314 153.191 147.382 153.305C147.449 153.419 147.637 153.476 147.946 153.476H148.935C149.217 153.476 149.359 153.589 149.359 153.816Z" fill="#005697"/>
<path d="M3.34485 43.4828C3.34485 37.9409 7.83745 33.4483 13.3793 33.4483H180.621C186.163 33.4483 190.655 37.9409 190.655 43.4828V83.6207H3.34485V43.4828Z" fill="#FF4785"/>
<path fill-rule="evenodd" clip-rule="evenodd" d="M140.065 56.2033C140.064 57.688 141.301 58.8928 142.828 58.8942C144.356 58.8955 145.595 57.6928 145.597 56.208C145.598 54.7234 144.361 53.5185 142.833 53.5172C141.306 53.5159 140.067 54.7186 140.065 56.2033ZM145.209 60.6073H140.464V76.5678H145.209V60.6073ZM111.682 76.6213C107.117 76.6213 103.404 73.0112 103.404 68.5737C103.404 65.57 105.105 62.8364 107.846 61.4414C107.911 61.4078 107.979 61.3775 108.046 61.3504C109.158 60.8195 110.398 60.5261 111.682 60.5261C116.247 60.5261 119.96 64.1361 119.96 68.5737C119.96 71.8897 117.912 74.8255 114.744 76.0527C114.7 76.0697 114.656 76.0855 114.612 76.0995C113.691 76.439 112.701 76.6213 111.682 76.6213ZM108.148 68.5737C108.148 68.1686 108.221 67.7752 108.357 67.4073L108.371 67.3712C108.883 66.0356 110.214 65.1385 111.682 65.1385C113.63 65.1385 115.216 66.6798 115.216 68.5737C115.216 69.0473 115.118 69.5025 114.938 69.9186L114.913 69.9698C114.345 71.2084 113.077 72.0091 111.682 72.0091C109.733 72.0091 108.148 70.4678 108.148 68.5737ZM95.1195 76.6213C90.5548 76.6213 86.841 73.0112 86.841 68.5737C86.841 64.1361 90.5548 60.5261 95.1195 60.5261C97.9101 60.5261 100.495 61.8817 102.033 64.1518L98.071 66.6892C97.4127 65.7182 96.3093 65.1382 95.1195 65.1382C93.1711 65.1382 91.5854 66.6798 91.5854 68.5737C91.5854 70.4678 93.1711 72.0091 95.1195 72.0091C96.2996 72.0091 97.3977 71.4392 98.0569 70.4825L101.998 73.0517C100.456 75.2874 97.8843 76.6213 95.1195 76.6213ZM38.1929 80.226H33.4482V60.6376H38.1929V61.3308C39.2836 60.8154 40.5075 60.5261 41.7999 60.5261C46.3643 60.5261 50.0777 64.1361 50.0777 68.5737C50.0777 73.0112 46.3643 76.6213 41.7999 76.6213C40.5075 76.6213 39.2836 76.332 38.1929 75.8165V80.226ZM163.897 80.226H159.152V75.8339C158.07 76.3387 156.859 76.6213 155.582 76.6213C151.017 76.6213 147.304 73.0112 147.304 68.5737C147.304 64.1361 151.017 60.5261 155.582 60.5261C156.859 60.5261 158.07 60.8089 159.152 61.3134V60.6376H163.897V80.226ZM122.016 76.5678H126.76V67.7381C127.031 65.3446 129.463 65.2716 129.754 65.2716C130.548 65.2716 131.266 65.5228 131.776 65.9787C132.359 66.4982 132.653 67.2759 132.653 68.289V76.4631H137.398V68.289C137.398 63.2805 133.552 60.6594 129.754 60.6594C128.746 60.6594 127.721 60.8488 126.76 61.2201V60.6376H122.016V67.5408C122 67.7525 121.992 67.9686 121.992 68.1893H122.016V76.5678ZM68.0578 76.5678H63.3132V75.8627C62.2475 76.3494 61.0585 76.6213 59.8055 76.6213C55.2408 76.6213 51.527 73.0112 51.527 68.5737C51.527 64.1361 55.2408 60.5261 59.8055 60.5261C61.0585 60.5261 62.2475 60.7982 63.3132 61.2847V60.6376H68.0578V67.9368C68.0749 68.1472 68.0836 68.3596 68.0836 68.5737C68.0836 68.7881 68.0749 69.0005 68.0578 69.2105V76.5678ZM63.3132 68.9931V68.1542C63.0995 66.4574 61.6077 65.1385 59.8055 65.1385C57.8571 65.1385 56.2713 66.6798 56.2713 68.5737C56.2713 70.4678 57.8571 72.0091 59.8055 72.0091C61.6077 72.0091 63.0995 70.6903 63.3132 68.9931ZM41.7999 65.1385C39.8516 65.1385 38.2658 66.6798 38.2658 68.5737C38.2658 70.4678 39.8516 72.0091 41.7999 72.0091C43.748 72.0091 45.3338 70.4678 45.3338 68.5737C45.3338 66.6798 43.748 65.1385 41.7999 65.1385ZM152.048 68.5737C152.048 66.6798 153.634 65.1385 155.582 65.1385C157.53 65.1385 159.116 66.6798 159.116 68.5737C159.116 70.4678 157.53 72.0091 155.582 72.0091C153.634 72.0091 152.048 70.4678 152.048 68.5737ZM78.8807 80.2471L79.3292 79.1433L86.8324 60.674H82.0175L78.5967 69.0941L74.9144 60.674H69.7801L76.3112 74.7204L74.0541 80.2759H78.869L78.8807 80.2471Z" fill="white"/>
</svg>
