<svg width="89" height="89" viewBox="0 0 89 89" fill="none" xmlns="http://www.w3.org/2000/svg">
<path d="M44.9583 53.0833L42.3362 55.7055L44.9583 58.3277L47.5805 55.7055L44.9583 53.0833ZM48.6667 19.7083C48.6667 17.6603 47.0064 16 44.9583 16C42.9102 16 41.25 17.6603 41.25 19.7083H48.6667ZM23.7945 37.1639L42.3362 55.7055L47.5805 50.4612L29.0389 31.9195L23.7945 37.1639ZM47.5805 55.7055L66.1222 37.1639L60.8778 31.9195L42.3362 50.4612L47.5805 55.7055ZM48.6667 53.0833V19.7083H41.25V53.0833H48.6667Z" fill="#33363F"/>
<path d="M19 60.5V64.2083C19 68.3046 22.3206 71.625 26.4167 71.625H63.5C67.5962 71.625 70.9167 68.3046 70.9167 64.2083V60.5" stroke="#33363F" stroke-width="5"/>
</svg>
