<svg width="182" height="182" viewBox="0 0 182 182" fill="none" xmlns="http://www.w3.org/2000/svg">
<path d="M125.125 51.1875H148.421C149.83 51.1889 151.188 51.7132 152.233 52.6589C153.277 53.6046 153.933 54.9043 154.074 56.3062L157.544 91H146.1L143.257 62.5625H125.125V79.625C125.125 81.1334 124.526 82.5801 123.459 83.6467C122.393 84.7133 120.946 85.3125 119.437 85.3125C117.929 85.3125 116.482 84.7133 115.416 83.6467C114.349 82.5801 113.75 81.1334 113.75 79.625V62.5625H68.25V79.625C68.25 81.1334 67.6508 82.5801 66.5842 83.6467C65.5175 84.7133 64.0709 85.3125 62.5625 85.3125C61.0541 85.3125 59.6074 84.7133 58.5408 83.6467C57.4742 82.5801 56.875 81.1334 56.875 79.625V62.5625H38.7319L29.6319 153.562H91V164.938H23.3415C22.5471 164.937 21.7617 164.77 21.0359 164.447C20.31 164.124 19.6599 163.653 19.1273 163.063C18.5947 162.474 18.1914 161.779 17.9436 161.025C17.6957 160.27 17.6087 159.472 17.6881 158.681L27.9256 56.3062C28.0665 54.9043 28.7228 53.6046 29.7672 52.6589C30.8117 51.7132 32.17 51.1889 33.579 51.1875H56.875V47.2176C56.875 27.4934 72.072 11.375 91 11.375C109.928 11.375 125.125 27.4934 125.125 47.2176V51.1989V51.1875ZM113.75 51.1875V47.2176C113.75 33.6359 103.49 22.75 91 22.75C78.5102 22.75 68.25 33.6359 68.25 47.2176V51.1989H113.75V51.1875ZM149.547 137.183L136.5 124.147V164.938C136.5 166.446 135.901 167.893 134.834 168.959C133.768 170.026 132.321 170.625 130.812 170.625C129.304 170.625 127.857 170.026 126.791 168.959C125.724 167.893 125.125 166.446 125.125 164.938V124.147L112.089 137.183C111.565 137.726 110.937 138.159 110.243 138.457C109.549 138.755 108.803 138.912 108.048 138.919C107.293 138.925 106.544 138.781 105.845 138.495C105.146 138.209 104.511 137.787 103.977 137.253C103.443 136.719 103.02 136.084 102.734 135.385C102.448 134.686 102.304 133.937 102.311 133.182C102.318 132.427 102.474 131.68 102.773 130.987C103.071 130.293 103.504 129.665 104.047 129.14L126.797 106.39C127.864 105.324 129.31 104.725 130.818 104.725C132.326 104.725 133.773 105.324 134.839 106.39L157.589 129.14C158.132 129.665 158.566 130.293 158.864 130.987C159.162 131.68 159.319 132.427 159.325 133.182C159.332 133.937 159.188 134.686 158.902 135.385C158.616 136.084 158.194 136.719 157.66 137.253C157.126 137.787 156.491 138.209 155.792 138.495C155.093 138.781 154.344 138.925 153.589 138.919C152.833 138.912 152.087 138.755 151.393 138.457C150.699 138.159 150.072 137.726 149.547 137.183Z" fill="black"/>
</svg>
