<svg width="143" height="143" viewBox="0 0 143 143" fill="none" xmlns="http://www.w3.org/2000/svg">
<g clip-path="url(#clip0_34_40)">
<path fill-rule="evenodd" clip-rule="evenodd" d="M80.4375 123.597C85.663 121.744 90.1867 118.318 93.3872 113.791C96.5878 109.264 98.3083 103.857 98.3125 98.3125C98.3096 92.7679 96.5896 87.3602 93.3889 82.8327C90.1881 78.3053 85.6637 74.8802 80.4375 73.0283V0H62.5625V73.0283C57.337 74.8813 52.8133 78.3067 49.6128 82.8339C46.4122 87.3611 44.6917 92.7682 44.6875 98.3125C44.6875 109.985 52.1592 119.914 62.5625 123.597V143H80.4375V123.597ZM35.75 69.9717C40.9755 68.1187 45.4992 64.6933 48.6997 60.1661C51.9003 55.6389 53.6208 50.2318 53.625 44.6875C53.6221 39.1429 51.9021 33.7352 48.7014 29.2077C45.5006 24.6803 40.9762 21.2552 35.75 19.4033V0H17.875V19.4033C12.6495 21.2563 8.12584 24.6817 4.92526 29.2089C1.72468 33.7361 0.00416089 39.1432 0 44.6875C0 56.3599 7.47175 66.2894 17.875 69.9717V143H35.75V69.9717ZM125.125 69.9717C130.35 68.1187 134.874 64.6933 138.075 60.1661C141.275 55.6389 142.996 50.2318 143 44.6875C142.997 39.1429 141.277 33.7352 138.076 29.2077C134.876 24.6803 130.351 21.2552 125.125 19.4033V0H107.25V19.4033C102.025 21.2563 97.5008 24.6817 94.3003 29.2089C91.0997 33.7361 89.3792 39.1432 89.375 44.6875C89.375 56.3599 96.8467 66.2894 107.25 69.9717V143H125.125V69.9717ZM107.25 53.625V35.75H125.125V53.625H107.25ZM17.875 53.625V35.75H35.75V53.625H17.875ZM62.5625 107.25V89.375H80.4375V107.25H62.5625Z" fill="#006C5F"/>
</g>
<defs>
<clipPath id="clip0_34_40">
<rect width="143" height="143" fill="white"/>
</clipPath>
</defs>
</svg>
