<svg width="109" height="109" viewBox="0 0 109 109" fill="none" xmlns="http://www.w3.org/2000/svg">
<path d="M13.625 95.375H95.375M13.625 81.75H95.375M26.4476 13.6267C28.3323 15.291 29.5208 17.7254 29.5208 20.4375C29.5208 25.4541 25.4541 29.5208 20.4375 29.5208C17.7254 29.5208 15.291 28.3323 13.6267 26.4476M26.4476 13.6267C26.984 13.625 27.5532 13.625 28.1583 13.625H80.8417C81.4466 13.625 82.0161 13.625 82.5525 13.6267M26.4476 13.6267C22.4745 13.639 20.2965 13.7428 18.5846 14.615C16.8754 15.4859 15.4859 16.8754 14.615 18.5846C13.7428 20.2965 13.639 22.4745 13.6267 26.4476M13.6267 26.4476C13.625 26.984 13.625 27.5532 13.625 28.1583V53.5917C13.625 54.1966 13.625 54.7661 13.6267 55.3025M82.5525 13.6267C80.6677 15.291 79.4792 17.7254 79.4792 20.4375C79.4792 25.4541 83.5458 29.5208 88.5625 29.5208C91.2743 29.5208 93.7091 28.3323 95.3732 26.4476M82.5525 13.6267C86.5256 13.639 88.7037 13.7428 90.4155 14.615C92.1245 15.4859 93.5143 16.8754 94.3849 18.5846C95.2574 20.2965 95.3609 22.4745 95.3732 26.4476M13.6267 55.3025C15.291 53.4177 17.7254 52.2292 20.4375 52.2292C25.4541 52.2292 29.5208 56.2958 29.5208 61.3125C29.5208 64.0243 28.3323 66.4591 26.4476 68.1232M13.6267 55.3025C13.639 59.2756 13.7428 61.4533 14.615 63.1655C15.4859 64.8745 16.8754 66.2643 18.5846 67.1349C20.2965 68.0074 22.4745 68.1109 26.4476 68.1232M26.4476 68.1232C26.984 68.125 27.5532 68.125 28.1583 68.125H80.8417C81.4466 68.125 82.0161 68.125 82.5525 68.1232M82.5525 68.1232C80.6677 66.4591 79.4792 64.0243 79.4792 61.3125C79.4792 56.2958 83.5458 52.2292 88.5625 52.2292C91.2752 52.2292 93.7105 53.4186 95.375 55.3043M82.5525 68.1232C86.5256 68.1109 88.7037 68.0074 90.4155 67.1349C92.1245 66.2643 93.5143 64.8745 94.3849 63.1655C95.2569 61.4537 95.3627 59.276 95.375 55.3043M95.375 55.3043C95.3768 54.7675 95.375 54.1975 95.375 53.5917V28.1583C95.375 27.5532 95.375 26.984 95.3732 26.4476M63.5833 40.875C63.5833 45.8917 59.5167 49.9583 54.5 49.9583C49.4833 49.9583 45.4167 45.8917 45.4167 40.875C45.4167 35.8584 49.4833 31.7917 54.5 31.7917C59.5167 31.7917 63.5833 35.8584 63.5833 40.875Z" stroke="black" stroke-width="5" stroke-linecap="round" stroke-linejoin="round"/>
</svg>
